<?xml version="1.0" encoding="UTF-8" standalone="no"?>
<svg
   xmlns:dc="http://purl.org/dc/elements/1.1/"
   xmlns:cc="http://creativecommons.org/ns#"
   xmlns:rdf="http://www.w3.org/1999/02/22-rdf-syntax-ns#"
   xmlns:svg="http://www.w3.org/2000/svg"
   xmlns="http://www.w3.org/2000/svg"
   xmlns:sodipodi="http://sodipodi.sourceforge.net/DTD/sodipodi-0.dtd"
   xmlns:inkscape="http://www.inkscape.org/namespaces/inkscape"
   viewBox="0.0 0.0 348.0 348.0"
   fill="none"
   version="1.1"
   id="svg831"
   sodipodi:docname="Module Name.svg"
   inkscape:version="0.92.4 (5da689c313, 2019-01-14)">
  <metadata
     id="metadata837">
    <rdf:RDF>
      <cc:Work
         rdf:about="">
        <dc:format>image/svg+xml</dc:format>
        <dc:type
           rdf:resource="http://purl.org/dc/dcmitype/StillImage" />
      </cc:Work>
    </rdf:RDF>
  </metadata>
  <defs
     id="defs835" />
  <sodipodi:namedview
     pagecolor="#ffffff"
     bordercolor="#666666"
     borderopacity="1"
     objecttolerance="10"
     gridtolerance="10"
     guidetolerance="10"
     inkscape:pageopacity="0"
     inkscape:pageshadow="2"
     inkscape:window-width="1280"
     inkscape:window-height="1001"
     id="namedview833"
     showgrid="false"
     inkscape:zoom="2.2701149"
     inkscape:cx="116.63852"
     inkscape:cy="210.26691"
     inkscape:window-x="-8"
     inkscape:window-y="-8"
     inkscape:window-maximized="1"
     inkscape:current-layer="svg831" />
  <path
     d="M5.079 5.776h336.913v337.67H5.08z"
     stroke-width="2"
     stroke="#000"
     id="path827" />
  <path
     d="M282.734 40.554c0-8.376 6.966-15.165 15.56-15.165 4.126 0 8.084 1.597 11.001 4.441 2.918 2.844 4.558 6.702 4.558 10.724 0 8.376-6.966 15.165-15.56 15.165-8.593 0-15.559-6.79-15.559-15.165z"
     stroke-width="2"
     stroke="#000"
     id="path829" />
  <rect
     style="fill:none;fill-opacity:1;stroke:#000000;stroke-width:1.52538288;stroke-miterlimit:4;stroke-dasharray:none;stroke-dashoffset:0;stroke-opacity:1"
     id="rect839"
     width="109.91817"
     height="104.63211"
     x="23.671293"
     y="55.387745" />
  <rect
     style="fill:none;fill-opacity:1;stroke:#000000;stroke-width:1.52538288;stroke-miterlimit:4;stroke-dasharray:none;stroke-dashoffset:0;stroke-opacity:1"
     id="rect839-3"
     width="109.91817"
     height="104.63211"
     x="151.19788"
     y="55.607994" />
  <path
     inkscape:connector-curvature="0"
     style="stroke:#000000;stroke-width:2"
     d="m 292.79493,144.92658 c 0,-8.376 6.966,-15.165 15.56,-15.165 4.126,0 8.084,1.597 11.001,4.441 2.918,2.844 4.558,6.702 4.558,10.724 0,8.376 -6.966,15.165 -15.56,15.165 -8.593,0 -15.559,-6.79 -15.559,-15.165 z"
     id="path829-4" />
  <rect
     style="fill:none;fill-opacity:1;stroke:#000000;stroke-width:1.75748026;stroke-miterlimit:4;stroke-dasharray:none;stroke-dashoffset:0;stroke-opacity:1"
     id="rect886"
     width="75.326584"
     height="74.886078"
     x="139.2"
     y="188.97722" />
  <rect
     style="fill:none;fill-opacity:1;stroke:#000000;stroke-width:1.75748026;stroke-miterlimit:4;stroke-dasharray:none;stroke-dashoffset:0;stroke-opacity:1"
     id="rect886-2"
     width="75.326584"
     height="74.886078"
     x="51.318981"
     y="218.93164" />
  <rect
     style="fill:none;fill-opacity:1;stroke:#000000;stroke-width:1.75748026;stroke-miterlimit:4;stroke-dasharray:none;stroke-dashoffset:0;stroke-opacity:1"
     id="rect886-2-4"
     width="75.326584"
     height="74.886078"
     x="225.53925"
     y="218.93164" />
  <g
     transform="matrix(7.2734626,0,0,7.1191881,-954.52883,-908.21923)"
     id="layer1"
     inkscape:label="Calque 1">
    <path
       inkscape:connector-curvature="0"
       id="path838"
       d="m 156.60116,156.86092 h -0.39238 v 2.65811 2.65812 h -0.55829 -0.55829 l -0.007,-2.66775 -0.007,-2.66774 -0.35084,-0.0108 c -0.19297,-0.006 -0.35085,-0.0254 -0.35085,-0.0432 0,-0.0178 0.28243,-0.2515 0.62761,-0.51928 l 0.62761,-0.48688 0.65405,0.50592 c 0.35973,0.27825 0.6663,0.52113 0.68127,0.53973 0.0157,0.0195 -0.13845,0.0338 -0.36517,0.0338 z"
       style="fill:#000004;fill-opacity:1;stroke:#000000;stroke-width:0.05837715;stroke-miterlimit:4;stroke-dasharray:none;stroke-dashoffset:0;stroke-opacity:1" />
  </g>
  <g
     transform="matrix(6.5712582,0,0,7.2801096,-758.02389,-900.78827)"
     id="layer1-1"
     inkscape:label="Calque 1">
    <path
       inkscape:connector-curvature="0"
       id="path838-4"
       d="m 157.79073,159.90816 v -0.39238 h -2.65811 -2.65812 v -0.55829 -0.55829 l 2.66775,-0.007 2.66774,-0.007 0.0108,-0.35084 c 0.006,-0.19297 0.0254,-0.35085 0.0432,-0.35085 0.0178,0 0.2515,0.28243 0.51928,0.62761 l 0.48688,0.62761 -0.50592,0.65405 c -0.27825,0.35973 -0.52113,0.6663 -0.53973,0.68127 -0.0195,0.0157 -0.0338,-0.13845 -0.0338,-0.36517 z"
       style="fill:#000004;fill-opacity:1;stroke:#000000;stroke-width:0.05837715;stroke-miterlimit:4;stroke-dasharray:none;stroke-dashoffset:0;stroke-opacity:1" />
  </g>
  <g
     transform="matrix(-6.5712582,0,0,7.2801096,1111.9707,-901.44904)"
     id="layer1-1-4"
     inkscape:label="Calque 1">
    <path
       inkscape:connector-curvature="0"
       id="path838-4-0"
       d="m 157.79073,159.90816 v -0.39238 h -2.65811 -2.65812 v -0.55829 -0.55829 l 2.66775,-0.007 2.66774,-0.007 0.0108,-0.35084 c 0.006,-0.19297 0.0254,-0.35085 0.0432,-0.35085 0.0178,0 0.2515,0.28243 0.51928,0.62761 l 0.48688,0.62761 -0.50592,0.65405 c -0.27825,0.35973 -0.52113,0.6663 -0.53973,0.68127 -0.0195,0.0157 -0.0338,-0.13845 -0.0338,-0.36517 z"
       style="fill:#000004;fill-opacity:1;stroke:#000000;stroke-width:0.05837715;stroke-miterlimit:4;stroke-dasharray:none;stroke-dashoffset:0;stroke-opacity:1" />
  </g>
  <path
     style="fill:none;fill-opacity:1;stroke:#000000;stroke-width:0.77418119;stroke-miterlimit:4;stroke-dasharray:none;stroke-dashoffset:0;stroke-opacity:1"
     d=""
     id="path1037"
     inkscape:connector-curvature="0" />
  <path
     style="fill:none;fill-opacity:1;stroke:#000000;stroke-width:0.09677265;stroke-miterlimit:4;stroke-dasharray:none;stroke-dashoffset:0;stroke-opacity:1"
     d=""
     id="path1073"
     inkscape:connector-curvature="0" />
  <path
     style="fill:none;fill-opacity:1;stroke:#000000;stroke-width:0.09677265;stroke-miterlimit:4;stroke-dasharray:none;stroke-dashoffset:0;stroke-opacity:1"
     d=""
     id="path1075"
     inkscape:connector-curvature="0" />
  <path
     style="fill:none;fill-opacity:1;stroke:#000000;stroke-width:0.01209658;stroke-miterlimit:4;stroke-dasharray:none;stroke-dashoffset:0;stroke-opacity:1"
     d=""
     id="path1109"
     inkscape:connector-curvature="0" />
  <path
     style="fill:none;fill-opacity:1;stroke:#000000;stroke-width:0.01209658;stroke-miterlimit:4;stroke-dasharray:none;stroke-dashoffset:0;stroke-opacity:1"
     d=""
     id="path1113"
     inkscape:connector-curvature="0" />
  <path
     style="fill:none;fill-opacity:1;stroke:#000000;stroke-width:0.01209658;stroke-miterlimit:4;stroke-dasharray:none;stroke-dashoffset:0;stroke-opacity:1"
     d=""
     id="path1119"
     inkscape:connector-curvature="0" />
  <g
     transform="matrix(10.139584,0,0,8.8105543,-1273.2906,-1586.5915)"
     id="layer1-7"
     inkscape:label="Calque 1">
    <path
       inkscape:connector-curvature="0"
       id="path1430"
       d="m 144.28561,194.14924 2.554,-6.29001 z"
       style="fill:none;stroke:#000000;stroke-width:0.0169657px;stroke-linecap:butt;stroke-linejoin:miter;stroke-opacity:1" />
    <path
       inkscape:connector-curvature="0"
       id="path1432"
       d="m 146.83963,187.85922 1.38065,-0.80106 z"
       style="fill:none;stroke:#000000;stroke-width:0.01690801px;stroke-linecap:butt;stroke-linejoin:miter;stroke-opacity:1" />
    <path
       inkscape:connector-curvature="0"
       id="path1436"
       d="m 148.22028,187.05816 0.42539,1.59543 z"
       style="fill:none;stroke:#000000;stroke-width:0.01690801px;stroke-linecap:butt;stroke-linejoin:miter;stroke-opacity:1" />
    <path
       inkscape:connector-curvature="0"
       id="path1438"
       d="m 148.64553,188.65364 -2.63084,6.24497 z"
       style="fill:none;stroke:#000000;stroke-width:0.01724706px;stroke-linecap:butt;stroke-linejoin:miter;stroke-opacity:1" />
    <path
       inkscape:connector-curvature="0"
       id="path1442"
       d="m 143.53516,193.82173 -0.27449,0.5701 3.17379,1.41248 0.32596,-0.60413 z"
       style="fill:none;stroke:#000000;stroke-width:0.01691486px;stroke-linecap:butt;stroke-linejoin:miter;stroke-opacity:1" />
    <path
       inkscape:connector-curvature="0"
       id="path1444"
       d="m 144.41273,194.91075 -0.80324,1.87328 0.88151,0.40749 0.81698,-1.88832 z"
       style="fill:none;stroke:#000000;stroke-width:0.0201494px;stroke-linecap:butt;stroke-linejoin:miter;stroke-opacity:1" />
    <path
       inkscape:connector-curvature="0"
       id="path1448"
       d="m 145.16357,194.50746 2.35067,-5.67966 z"
       style="fill:none;stroke:#000000;stroke-width:0.01697701px;stroke-linecap:butt;stroke-linejoin:miter;stroke-opacity:1" />
    <path
       inkscape:connector-curvature="0"
       id="path1430-3"
       d="m 144.44102,194.19808 2.39163,-5.98801 z"
       style="fill:none;stroke:#000000;stroke-width:0.01601857px;stroke-linecap:butt;stroke-linejoin:miter;stroke-opacity:1" />
    <path
       inkscape:connector-curvature="0"
       id="path1432-5"
       d="m 146.83328,188.20981 1.17632,-0.71025 z"
       style="fill:none;stroke:#000000;stroke-width:0.01469545px;stroke-linecap:butt;stroke-linejoin:miter;stroke-opacity:1" />
    <path
       inkscape:connector-curvature="0"
       id="path1436-8"
       d="m 148.0096,187.49956 0.36242,1.41456 z"
       style="fill:none;stroke:#000000;stroke-width:0.01469545px;stroke-linecap:butt;stroke-linejoin:miter;stroke-opacity:1" />
    <path
       inkscape:connector-curvature="0"
       id="path1438-3"
       d="m 148.37134,188.91442 -2.49913,5.89957 z"
       style="fill:none;stroke:#000000;stroke-width:0.01633836px;stroke-linecap:butt;stroke-linejoin:miter;stroke-opacity:1" />
    <path
       inkscape:connector-curvature="0"
       id="path1504"
       d="m 145.9187,194.81512 c -0.008,-0.0131 0.54506,-1.34515 1.22912,-2.96016 l 1.24374,-2.9364 -0.18108,-0.71095 c -0.0996,-0.39101 -0.1857,-0.71558 -0.19135,-0.72126 -0.006,-0.006 -0.28004,0.15298 -0.60974,0.35257 l -0.59947,0.3629 -1.19101,2.98913 c -1.1841,2.97177 -1.19134,2.98898 -1.24752,2.96326 -0.0311,-0.0142 -0.0535,-0.0334 -0.0499,-0.0426 0.003,-0.009 0.5753,-1.41649 1.27033,-3.12733 l 1.26368,-3.11062 0.67591,-0.39177 c 0.37174,-0.21546 0.67837,-0.38353 0.6814,-0.37347 0.003,0.0101 0.0969,0.36117 0.20871,0.78025 l 0.20322,0.76197 -1.30354,3.09411 c -1.31054,3.11072 -1.33917,3.17338 -1.40254,3.07036 z"
       style="fill:#000004;fill-opacity:1;stroke:#000000;stroke-width:0.0424507;stroke-miterlimit:4;stroke-dasharray:none;stroke-dashoffset:0;stroke-opacity:1" />
    <path
       inkscape:connector-curvature="0"
       id="path1506"
       d="m 144.88235,195.09059 c -0.84814,-0.37789 -1.55291,-0.69086 -1.56616,-0.69548 -0.0381,-0.0133 0.21532,-0.53833 0.2553,-0.529 0.0433,0.0101 3.13091,1.32882 3.14543,1.34341 0.007,0.008 -0.26175,0.53336 -0.28962,0.56487 -0.001,0.002 -0.69683,-0.30591 -1.54495,-0.6838 z"
       style="fill:#000004;fill-opacity:1;stroke:#000000;stroke-width:0.0424507;stroke-miterlimit:4;stroke-dasharray:none;stroke-dashoffset:0;stroke-opacity:1" />
    <path
       inkscape:connector-curvature="0"
       id="path1508"
       d="m 144.06312,196.96876 c -0.24705,-0.11391 -0.40824,-0.20164 -0.40618,-0.22108 0.001,-0.0178 0.16286,-0.40269 0.35771,-0.85549 0.19485,-0.4528 0.36679,-0.85264 0.38209,-0.88853 l 0.0278,-0.0652 0.42165,0.18422 c 0.23192,0.10132 0.42433,0.18604 0.42761,0.18827 0.006,0.004 -0.75178,1.76147 -0.78323,1.81586 -0.0133,0.023 -0.12276,-0.0175 -0.42745,-0.158 z"
       style="fill:#000004;fill-opacity:1;stroke:#000000;stroke-width:0.0424507;stroke-miterlimit:4;stroke-dasharray:none;stroke-dashoffset:0;stroke-opacity:1" />
    <path
       inkscape:connector-curvature="0"
       id="path1448-7"
       d="m 145.07112,194.48052 2.35366,-5.68268 z"
       style="fill:none;stroke:#000000;stroke-width:0.01699234px;stroke-linecap:butt;stroke-linejoin:miter;stroke-opacity:1" />
    <path
       inkscape:connector-curvature="0"
       id="path1525"
       d="m 147.42478,188.79784 c 0.0895,0.0299 0.0895,0.0299 0.0895,0.0299 z"
       style="fill:none;stroke:#000000;stroke-width:0.01690801px;stroke-linecap:butt;stroke-linejoin:miter;stroke-opacity:1" />
    <path
       inkscape:connector-curvature="0"
       id="path1529"
       d="m 145.12017,194.48663 c -0.0174,-0.007 -0.0316,-0.0143 -0.0315,-0.016 4e-5,-0.002 0.47004,-1.1376 1.04442,-2.52431 l 1.04434,-2.52128 0.0397,-0.002 0.0397,-0.002 -0.0174,0.0411 c -0.01,0.0226 -0.4801,1.15937 -1.04566,2.5261 -0.56556,1.36673 -1.03137,2.49081 -1.03512,2.49796 l -0.007,0.013 z"
       style="fill:#000004;fill-opacity:1;stroke:#000000;stroke-width:0.01061268;stroke-miterlimit:4;stroke-dasharray:none;stroke-dashoffset:0;stroke-opacity:1" />
    <path
       inkscape:connector-curvature="0"
       id="path1531"
       d="m 147.18312,189.41074 c 0.001,-0.007 0.24585,-0.59666 0.24752,-0.59842 4.9e-4,-6.3e-4 0.0164,0.004 0.0351,0.0107 l 0.0342,0.0117 -0.11937,0.28892 c -0.0657,0.15892 -0.11953,0.28919 -0.11971,0.28951 -1.8e-4,2.1e-4 -0.0182,0.001 -0.04,0.003 -0.0345,0.002 -0.0395,0.001 -0.0378,-0.005 z"
       style="fill:#000004;fill-opacity:1;stroke:#000000;stroke-width:0.00750429;stroke-miterlimit:4;stroke-dasharray:none;stroke-dashoffset:0;stroke-opacity:1" />
  </g>
  <g
     transform="matrix(9.7493745,0,0,9.9763214,-1443.9353,-2141.1954)"
     id="layer1-5"
     inkscape:label="Calque 1">
    <path
       inkscape:connector-curvature="0"
       id="path817"
       d="m 152.56879,221.42123 v 6.35531 z"
       style="fill:none;stroke:#000000;stroke-width:0.01541421px;stroke-linecap:butt;stroke-linejoin:miter;stroke-opacity:1" />
    <path
       inkscape:connector-curvature="0"
       id="path819"
       d="m 152.56879,227.77654 3.53556,1.87384 z"
       style="fill:none;stroke:#000000;stroke-width:0.01541421px;stroke-linecap:butt;stroke-linejoin:miter;stroke-opacity:1" />
    <path
       inkscape:connector-curvature="0"
       id="path827-24"
       d="m 156.10435,229.65038 3.52527,-1.8684 z"
       style="fill:none;stroke:#000000;stroke-width:0.01541421px;stroke-linecap:butt;stroke-linejoin:miter;stroke-opacity:1" />
    <path
       inkscape:connector-curvature="0"
       id="path829-91"
       d="m 152.56879,221.42123 h 7.05458 z"
       style="fill:none;stroke:#000000;stroke-width:0.01456154px;stroke-linecap:butt;stroke-linejoin:miter;stroke-opacity:1" />
    <path
       inkscape:connector-curvature="0"
       id="path831"
       d="m 159.62962,227.78198 v -6.371 z"
       style="fill:none;stroke:#000000;stroke-width:0.01541421px;stroke-linecap:butt;stroke-linejoin:miter;stroke-opacity:1" />
    <path
       inkscape:connector-curvature="0"
       id="path817-1"
       d="m 153.1323,222.20007 v 5.2515 z"
       style="fill:none;stroke:#000000;stroke-width:0.01269504px;stroke-linecap:butt;stroke-linejoin:miter;stroke-opacity:1" />
    <path
       inkscape:connector-curvature="0"
       id="path819-4"
       d="m 153.1323,227.45157 2.90225,1.5484 z"
       style="fill:none;stroke:#000000;stroke-width:0.01269504px;stroke-linecap:butt;stroke-linejoin:miter;stroke-opacity:1" />
    <path
       inkscape:connector-curvature="0"
       id="path827-2"
       d="m 156.03455,228.99997 2.89382,-1.54389 z"
       style="fill:none;stroke:#000000;stroke-width:0.01269504px;stroke-linecap:butt;stroke-linejoin:miter;stroke-opacity:1" />
    <path
       inkscape:connector-curvature="0"
       id="path829-9"
       d="m 153.1323,222.20007 h 5.79094 z"
       style="fill:none;stroke:#000000;stroke-width:0.01199279px;stroke-linecap:butt;stroke-linejoin:miter;stroke-opacity:1" />
    <path
       inkscape:connector-curvature="0"
       id="path831-8"
       d="M 158.92837,227.45608 V 222.1916 Z"
       style="fill:none;stroke:#000000;stroke-width:0.01269504px;stroke-linecap:butt;stroke-linejoin:miter;stroke-opacity:1" />
    <path
       inkscape:connector-curvature="0"
       id="path860"
       d="m 154.34793,228.69304 -1.73796,-0.92127 -0.007,-3.16644 -0.007,-3.16639 h 3.51058 3.5106 l -0.007,3.1668 -0.007,3.16681 -1.73712,0.92086 c -0.95541,0.5065 -1.74564,0.9209 -1.75607,0.9209 -0.0107,0 -0.80106,-0.41458 -1.75694,-0.92127 z m 3.1537,-0.45007 1.44636,-0.77282 0.007,-2.64264 0.007,-2.64266 h -2.9256 -2.92561 l 0.007,2.64471 0.007,2.6447 1.44593,0.77164 c 0.79526,0.42442 1.45344,0.77127 1.46262,0.77077 0.009,-4.6e-4 0.66756,-0.34863 1.46307,-0.7737 z"
       style="fill:#000004;fill-opacity:1;stroke:#000000;stroke-width:0.05473043;stroke-miterlimit:4;stroke-dasharray:none;stroke-dashoffset:0;stroke-opacity:1" />
    <path
       inkscape:connector-curvature="0"
       id="path860-2"
       d="m 155.31575,226.84972 -0.75594,-0.37897 -0.003,-1.30257 -0.004,-1.30257 h 1.52698 1.52697 l -0.003,1.30273 -0.004,1.30271 -0.75557,0.37882 c -0.41557,0.20835 -0.7593,0.37883 -0.76383,0.37883 -0.004,0 -0.34841,-0.17055 -0.76419,-0.37898 z m 1.37176,-0.18514 0.62911,-0.31792 0.004,-1.0871 0.003,-1.0871 h -1.27252 -1.27253 l 0.004,1.08795 0.003,1.08794 0.62893,0.31743 c 0.34592,0.17458 0.6322,0.31728 0.63619,0.31707 0.004,-2.3e-4 0.29036,-0.14334 0.63639,-0.31827 z"
       style="fill:#000004;fill-opacity:1;stroke:#000000;stroke-width:0.023151;stroke-miterlimit:4;stroke-dasharray:none;stroke-dashoffset:0;stroke-opacity:1" />
    <path
       inkscape:connector-curvature="0"
       id="path877"
       d="m 155.42861,226.64876 -0.59756,-0.30173 -0.0154,-0.10391 c -0.007,-0.0571 -0.0162,-0.54292 -0.0172,-1.0796 l -8.9e-4,-0.97578 h 1.25256 1.25257 v 1.07108 1.07111 l -0.61775,0.31081 c -0.33975,0.17096 -0.62677,0.31057 -0.63777,0.31027 -0.0107,-3.1e-4 -0.28893,-0.13628 -0.61759,-0.30231 z"
       style="fill:#000004;fill-opacity:1;stroke:#000000;stroke-width:0.03870026;stroke-miterlimit:4;stroke-dasharray:none;stroke-dashoffset:0;stroke-opacity:1" />
  </g>
</svg>
